<svg width="24" height="24" viewBox="0 0 24 24" fill="none" xmlns="http://www.w3.org/2000/svg">
<path fill-rule="evenodd" clip-rule="evenodd" d="M12 0C5.37258 0 0 5.37258 0 12C0 18.6274 5.37258 24 12 24C18.6274 24 24 18.6274 24 12C24 5.37258 18.6274 0 12 0ZM4 5.648C4 4.736 4.84114 4 5.87429 4H18.1257C19.1589 4 20 4.736 20 5.648V20L18.0343 18.48L16.928 17.584L15.7577 16.632L16.2423 18.112H5.87429C4.84114 18.112 4 17.376 4 16.464V5.648Z" fill="#EFE3D8"/>
<path fill-rule="evenodd" clip-rule="evenodd" d="M15.1182 15C15.1182 15 14.7791 14.5393 14.4966 14.1322C15.7303 13.7357 16.2012 12.8572 16.2012 12.8572C15.8151 13.1464 15.4478 13.35 15.1182 13.4893C14.6473 13.7143 14.1952 13.8643 13.7526 13.95C12.8485 14.1429 12.0197 14.0893 11.3134 13.9393C10.7765 13.8214 10.3151 13.65 9.92894 13.4786C9.71233 13.3822 9.47688 13.2643 9.24144 13.1143C9.22731 13.1036 9.21318 13.0956 9.19906 13.0875L9.19905 13.0875C9.18493 13.0795 9.1708 13.0714 9.15668 13.0607C9.13784 13.05 9.12842 13.0393 9.11901 13.0286C8.94949 12.9214 8.85531 12.8464 8.85531 12.8464C8.85531 12.8464 9.30736 13.7036 10.5034 14.1107C10.2209 14.5179 9.87243 15 9.87243 15C7.7911 14.925 7 13.3714 7 13.3714C7 9.92148 8.35616 7.12508 8.35616 7.12508C9.71233 5.96795 11.0026 6.00009 11.0026 6.00009L11.0967 6.12866C9.40154 6.6858 8.61986 7.53222 8.61986 7.53222C8.61986 7.53222 8.82705 7.40365 9.17551 7.22151C10.1832 6.71794 10.9837 6.57865 11.3134 6.54651L11.3345 6.54245C11.382 6.53325 11.4241 6.52508 11.4735 6.52508C12.0479 6.43937 12.6978 6.41794 13.3759 6.50366C14.2705 6.62151 15.2312 6.92151 16.2106 7.53222C16.2106 7.53222 15.4666 6.72865 13.8656 6.17152L13.9974 6.00009C13.9974 6.00009 15.2877 5.96795 16.6438 7.12508C16.6438 7.12508 18 9.92148 18 13.3714C18 13.3714 17.1995 14.925 15.1182 15ZM11.0043 10.1908C10.4717 10.1908 10.0513 10.7424 10.0513 11.4153C10.0513 12.0882 10.4811 12.6398 11.0043 12.6398C11.5369 12.6398 11.9574 12.0882 11.9574 11.4153C11.9667 10.7424 11.5369 10.1908 11.0043 10.1908ZM13.4612 11.4153C13.4612 10.7424 13.8816 10.1908 14.4142 10.1908C14.9468 10.1908 15.3673 10.7424 15.3673 11.4153C15.3673 12.0882 14.9468 12.6398 14.4142 12.6398C13.891 12.6398 13.4612 12.0882 13.4612 11.4153Z" fill="#EFE3D8"/>
</svg>
