<svg width="24" height="24" viewBox="0 0 24 24" fill="none" xmlns="http://www.w3.org/2000/svg">
<path d="M12.0217 0.0899658C5.40745 0.0899658 0.0439453 5.54392 0.0439453 12.2722C0.0439453 17.6548 3.47594 22.2213 8.23509 23.8322C8.8337 23.9449 9.05347 23.5679 9.05347 23.2461C9.05347 22.9556 9.04236 21.9959 9.0372 20.978C5.70497 21.7149 5.00183 19.5406 5.00183 19.5406C4.45697 18.1325 3.67191 17.7581 3.67191 17.7581C2.58517 17.002 3.75383 17.0175 3.75383 17.0175C4.95661 17.1032 5.58993 18.2729 5.58993 18.2729C6.65823 20.1353 8.39198 19.5969 9.07548 19.2856C9.18299 18.4984 9.4934 17.9606 9.83595 17.6566C7.17552 17.3485 4.37882 16.3039 4.37882 11.636C4.37882 10.3059 4.84672 9.21916 5.61294 8.36601C5.48857 8.05897 5.07859 6.8201 5.72897 5.14206C5.72897 5.14206 6.73479 4.81464 9.02371 6.39081C9.97915 6.12088 11.0038 5.98552 12.0217 5.98088C13.0396 5.98552 14.0651 6.12088 15.0223 6.39081C17.3085 4.81464 18.3129 5.14206 18.3129 5.14206C18.9649 6.8201 18.5547 8.05897 18.4303 8.36601C19.1983 9.21916 19.6631 10.3059 19.6631 11.636C19.6631 16.315 16.861 17.3453 14.1938 17.6469C14.6234 18.025 15.0063 18.7663 15.0063 19.9029C15.0063 21.5328 14.9924 22.8447 14.9924 23.2461C14.9924 23.5703 15.208 23.9502 15.8151 23.8305C20.5717 22.2179 23.9993 17.653 23.9993 12.2722C23.9993 5.54392 18.6366 0.0899658 12.0217 0.0899658Z" fill="#EFE3D8"/>
<path d="M4.58055 17.5812C4.55417 17.6419 4.46055 17.6598 4.37526 17.6183C4.28838 17.5785 4.23959 17.496 4.26775 17.4353C4.29354 17.373 4.38736 17.3558 4.47403 17.3972C4.56111 17.4371 4.6107 17.5204 4.58055 17.5812Z" fill="#EFE3D8"/>
<path d="M5.06589 18.1315C5.00877 18.1854 4.8971 18.1603 4.82133 18.0752C4.74298 17.9903 4.7283 17.8767 4.78622 17.822C4.84513 17.7682 4.95343 17.7934 5.03197 17.8783C5.11032 17.9643 5.12559 18.077 5.06589 18.1315Z" fill="#EFE3D8"/>
<path d="M5.53775 18.8331C5.46436 18.8849 5.34436 18.8363 5.27018 18.728C5.19679 18.6197 5.19679 18.4897 5.27176 18.4377C5.34614 18.3856 5.46436 18.4324 5.53953 18.54C5.61272 18.6499 5.61272 18.78 5.53775 18.8331Z" fill="#EFE3D8"/>
<path d="M6.18488 19.511C6.11923 19.5846 5.97939 19.5648 5.87705 19.4644C5.77232 19.3661 5.74316 19.2267 5.80901 19.1531C5.87546 19.0792 6.01609 19.1 6.11923 19.1997C6.22316 19.2977 6.2549 19.4381 6.18488 19.511Z" fill="#EFE3D8"/>
<path d="M7.07769 19.9046C7.04873 20 6.91405 20.0434 6.77838 20.0028C6.64291 19.9611 6.55425 19.8493 6.58162 19.7529C6.60979 19.6568 6.74506 19.6116 6.88172 19.655C7.01699 19.6966 7.10585 19.8075 7.07769 19.9046Z" fill="#EFE3D8"/>
<path d="M8.05768 19.9775C8.06105 20.078 7.94601 20.1613 7.8036 20.1629C7.66039 20.1664 7.54456 20.0851 7.54297 19.9862C7.54297 19.8847 7.65543 19.8022 7.79864 19.7998C7.94105 19.797 8.05768 19.8777 8.05768 19.9775Z" fill="#EFE3D8"/>
<path d="M8.97016 19.8196C8.98722 19.9176 8.88824 20.0183 8.74682 20.0449C8.60778 20.071 8.47905 20.0104 8.4614 19.9132C8.44414 19.8127 8.5449 19.7121 8.68374 19.686C8.82536 19.661 8.95211 19.7199 8.97016 19.8196Z" fill="#EFE3D8"/>
</svg>
