<svg width="24" height="24" viewBox="0 0 24 24" fill="none" xmlns="http://www.w3.org/2000/svg">
<path fill-rule="evenodd" clip-rule="evenodd" d="M12 0C5.37258 0 0 5.37258 0 12C0 18.6274 5.37258 24 12 24C18.6274 24 24 18.6274 24 12C24 5.37258 18.6274 0 12 0ZM5 11.9801C5 8.13128 8.14012 5 11.9999 5C15.8597 5 18.9998 8.13128 18.9998 11.9801C18.9998 12.5254 18.9543 12.9668 18.8524 13.4098L18.8509 13.4172C18.8506 13.4185 18.8 13.6227 18.7721 13.7118C18.5991 14.2636 18.2859 14.7231 17.8662 15.0408C17.4593 15.3488 16.9547 15.5185 16.4455 15.5185C16.3826 15.5185 16.3193 15.516 16.2572 15.511C15.5341 15.4531 14.8983 15.0737 14.5084 14.4686C13.8379 15.141 12.9482 15.5109 11.9999 15.5109C10.0476 15.5109 8.45921 13.927 8.45921 11.9801C8.45921 10.0333 10.0476 8.44947 11.9999 8.44947C13.9522 8.44947 15.5406 10.0333 15.5406 11.9801V13.1183C15.5435 13.7824 15.9904 14.0538 16.3722 14.0846C16.7521 14.1138 17.2576 13.8931 17.4337 13.173C17.5206 12.7781 17.5647 12.3766 17.5647 11.9801C17.5647 8.92035 15.0683 6.43106 11.9999 6.43106C8.93147 6.43106 6.43515 8.92035 6.43515 11.9801C6.43515 15.0399 8.93147 17.5293 11.9999 17.5293C13.068 17.5293 14.1068 17.2251 15.004 16.6495L15.02 16.6392L15.963 17.7325L15.9428 17.7463C14.7774 18.5405 13.414 18.9604 11.9999 18.9604C8.14012 18.9604 5 15.829 5 11.9801Z" fill="#EFE3D8"/>
<path fill-rule="evenodd" clip-rule="evenodd" d="M14.1056 11.9801C14.1056 13.1379 13.1611 14.0798 12.0001 14.0798C10.839 14.0798 9.89453 13.1379 9.89453 11.9801C9.89453 10.8224 10.839 9.88055 12.0001 9.88055C13.1611 9.88055 14.1056 10.8224 14.1056 11.9801Z" fill="#EFE3D8"/>
</svg>
