<svg width="24" height="24" viewBox="0 0 24 24" fill="none" xmlns="http://www.w3.org/2000/svg">
<path fill-rule="evenodd" clip-rule="evenodd" d="M0 12C0 18.6274 5.37258 24 12 24C18.6274 24 24 18.6274 24 12C24 5.37258 18.6274 0 12 0C5.37258 0 0 5.37258 0 12ZM18.1727 12.0664C18.1727 12.5101 18.1246 12.9418 18.032 13.3588C18.2675 13.8262 18.4 14.3522 18.4 14.9094C18.4 16.8368 16.8151 18.4 14.8598 18.4C14.254 18.4 13.685 18.2494 13.1861 17.9853C12.8233 18.0513 12.45 18.0862 12.0677 18.0862C8.69614 18.0862 5.96275 15.3916 5.96275 12.0664C5.96275 11.6524 6.00564 11.2473 6.08617 10.8571C5.77761 10.3378 5.6 9.73535 5.6 9.09138C5.6 7.16244 7.18495 5.6 9.14092 5.6C9.83255 5.6 10.4783 5.7966 11.0239 6.13565C11.3641 6.07778 11.7125 6.04737 12.0677 6.04737C15.4401 6.04737 18.1727 8.74269 18.1727 12.0664Z" fill="#EFE3D8"/>
<path d="M15.1994 14.9435C14.9171 15.3382 14.5002 15.6498 13.9583 15.8709C13.4233 16.0905 12.7821 16.2025 12.0513 16.2025C11.1745 16.2025 10.4392 16.0504 9.86502 15.75C9.45486 15.5318 9.11695 15.2366 8.86032 14.8701C8.60068 14.5021 8.46973 14.1363 8.46973 13.7824C8.46973 13.5628 8.55552 13.3714 8.7241 13.2149C8.89118 13.0591 9.10566 12.9812 9.36154 12.9812C9.57076 12.9812 9.75213 13.0428 9.89889 13.1652C10.0396 13.2831 10.16 13.4575 10.2571 13.6808C10.3655 13.9256 10.4829 14.1319 10.6071 14.2929C10.7275 14.4502 10.8998 14.5815 11.1196 14.6846C11.3408 14.787 11.6396 14.8404 12.0061 14.8404C12.5111 14.8404 12.925 14.7336 13.2359 14.5243C13.5407 14.3203 13.6882 14.074 13.6882 13.7728C13.6882 13.5361 13.6106 13.3492 13.4526 13.2023C13.2855 13.0494 13.0665 12.9307 12.8009 12.8477C12.5232 12.7631 12.1469 12.6703 11.681 12.5739C11.0466 12.4403 10.5085 12.2823 10.081 12.102C9.64301 11.9188 9.29005 11.6643 9.03191 11.346C8.77001 11.0218 8.6368 10.616 8.6368 10.139C8.6368 9.68493 8.77603 9.27466 9.05148 8.92152C9.32391 8.5706 9.72278 8.29609 10.2368 8.10988C10.7433 7.92514 11.3454 7.83167 12.028 7.83167C12.5728 7.83167 13.0522 7.89398 13.4526 8.01714C13.8552 8.1403 14.1939 8.30648 14.4603 8.51199C14.729 8.71972 14.9292 8.94006 15.0541 9.17005C15.1805 9.40227 15.2453 9.633 15.2453 9.85631C15.2453 10.0715 15.161 10.2673 14.9947 10.4372C14.8276 10.6093 14.6161 10.6961 14.3678 10.6961C14.142 10.6961 13.9644 10.6412 13.8424 10.5344C13.7281 10.4342 13.6091 10.2785 13.4774 10.0559C13.3254 9.77099 13.141 9.5462 12.9296 9.38743C12.7241 9.23311 12.3817 9.15596 11.9098 9.15596C11.4733 9.15596 11.1166 9.24202 10.8524 9.4134C10.598 9.57736 10.4739 9.76654 10.4739 9.99059C10.4739 10.1271 10.5138 10.2421 10.5965 10.34C10.6823 10.4454 10.805 10.5359 10.96 10.613C11.1203 10.6924 11.2859 10.7562 11.4515 10.8007C11.6208 10.8475 11.9053 10.9165 12.2959 11.0055C12.7903 11.1094 13.2441 11.2273 13.6453 11.3542C14.0524 11.4818 14.4031 11.6391 14.6906 11.8238C14.9826 12.0115 15.2137 12.2519 15.3785 12.5398C15.5433 12.8298 15.6268 13.186 15.6268 13.6007C15.6268 14.0963 15.4823 14.5481 15.1994 14.9435Z" fill="#EFE3D8"/>
</svg>
